<mxfile host="app.diagrams.net" modified="2022-06-01T13:27:45.442Z" agent="5.0 (Macintosh; Intel Mac OS X 10_15_7) AppleWebKit/537.36 (KHTML, like Gecko) Chrome/101.0.4951.64 Safari/537.36" etag="uJ42-HafaEOsQfWgqzYF" version="18.1.2" type="github">
  <diagram id="ODEYBC-CieSt6T9_iWKk" name="Page-1">
    <mxGraphModel dx="1234" dy="714" grid="1" gridSize="10" guides="1" tooltips="1" connect="1" arrows="1" fold="1" page="1" pageScale="1" pageWidth="827" pageHeight="1169" math="0" shadow="0">
      <root>
        <mxCell id="0" />
        <mxCell id="1" parent="0" />
        <mxCell id="qeCB0uxX6OETAUami0wg-22" value="" style="rounded=0;whiteSpace=wrap;html=1;" vertex="1" parent="1">
          <mxGeometry x="9" y="60" width="810" height="370" as="geometry" />
        </mxCell>
        <mxCell id="qeCB0uxX6OETAUami0wg-1" value="" style="rounded=0;whiteSpace=wrap;html=1;fillColor=#f5f5f5;strokeColor=#666666;fontColor=#333333;" vertex="1" parent="1">
          <mxGeometry x="529" y="120" width="240" height="160" as="geometry" />
        </mxCell>
        <mxCell id="qeCB0uxX6OETAUami0wg-2" value="Virtual Machine&lt;br&gt;(Linux or Mac)" style="text;html=1;strokeColor=none;fillColor=none;align=center;verticalAlign=middle;whiteSpace=wrap;rounded=0;" vertex="1" parent="1">
          <mxGeometry x="529" y="120" width="120" height="40" as="geometry" />
        </mxCell>
        <mxCell id="qeCB0uxX6OETAUami0wg-3" value="DEN Agent" style="rounded=0;whiteSpace=wrap;html=1;" vertex="1" parent="1">
          <mxGeometry x="579" y="180" width="120" height="60" as="geometry" />
        </mxCell>
        <mxCell id="qeCB0uxX6OETAUami0wg-4" value="" style="rounded=0;whiteSpace=wrap;html=1;fillColor=#e1d5e7;strokeColor=#9673a6;" vertex="1" parent="1">
          <mxGeometry x="179" y="120" width="290" height="290" as="geometry" />
        </mxCell>
        <mxCell id="qeCB0uxX6OETAUami0wg-5" value="Bitrise internal" style="text;html=1;strokeColor=none;fillColor=none;align=center;verticalAlign=middle;whiteSpace=wrap;rounded=0;" vertex="1" parent="1">
          <mxGeometry x="179" y="120" width="100" height="30" as="geometry" />
        </mxCell>
        <mxCell id="qeCB0uxX6OETAUami0wg-9" value="2. persist&lt;br&gt;build task" style="rounded=0;orthogonalLoop=1;jettySize=auto;html=1;exitX=0.194;exitY=1.006;exitDx=0;exitDy=0;exitPerimeter=0;" edge="1" parent="1" source="qeCB0uxX6OETAUami0wg-6">
          <mxGeometry relative="1" as="geometry">
            <mxPoint x="361" y="310" as="targetPoint" />
          </mxGeometry>
        </mxCell>
        <mxCell id="qeCB0uxX6OETAUami0wg-6" value="DEN Server" style="rounded=0;whiteSpace=wrap;html=1;" vertex="1" parent="1">
          <mxGeometry x="313" y="180" width="120" height="60" as="geometry" />
        </mxCell>
        <mxCell id="qeCB0uxX6OETAUami0wg-7" value="DEN DB" style="shape=cylinder3;whiteSpace=wrap;html=1;boundedLbl=1;backgroundOutline=1;size=15;" vertex="1" parent="1">
          <mxGeometry x="343" y="310" width="60" height="80" as="geometry" />
        </mxCell>
        <mxCell id="qeCB0uxX6OETAUami0wg-12" value="1. starts&lt;br&gt;build&lt;br&gt;task" style="edgeStyle=orthogonalEdgeStyle;rounded=0;orthogonalLoop=1;jettySize=auto;html=1;" edge="1" parent="1" source="qeCB0uxX6OETAUami0wg-10" target="qeCB0uxX6OETAUami0wg-11">
          <mxGeometry relative="1" as="geometry" />
        </mxCell>
        <mxCell id="qeCB0uxX6OETAUami0wg-10" value="User" style="shape=umlActor;verticalLabelPosition=bottom;verticalAlign=top;html=1;outlineConnect=0;" vertex="1" parent="1">
          <mxGeometry x="29" y="180" width="30" height="60" as="geometry" />
        </mxCell>
        <mxCell id="qeCB0uxX6OETAUami0wg-15" value="" style="edgeStyle=orthogonalEdgeStyle;rounded=0;orthogonalLoop=1;jettySize=auto;html=1;" edge="1" parent="1" source="qeCB0uxX6OETAUami0wg-11" target="qeCB0uxX6OETAUami0wg-6">
          <mxGeometry relative="1" as="geometry" />
        </mxCell>
        <mxCell id="qeCB0uxX6OETAUami0wg-11" value="Bitrise Website" style="rounded=0;whiteSpace=wrap;html=1;" vertex="1" parent="1">
          <mxGeometry x="119" y="180" width="120" height="60" as="geometry" />
        </mxCell>
        <mxCell id="qeCB0uxX6OETAUami0wg-16" value="" style="endArrow=classic;html=1;rounded=0;exitX=0;exitY=0.15;exitDx=0;exitDy=0;exitPerimeter=0;entryX=0.992;entryY=0.15;entryDx=0;entryDy=0;entryPerimeter=0;" edge="1" parent="1" source="qeCB0uxX6OETAUami0wg-3" target="qeCB0uxX6OETAUami0wg-6">
          <mxGeometry width="50" height="50" relative="1" as="geometry">
            <mxPoint x="409" y="380" as="sourcePoint" />
            <mxPoint x="459" y="330" as="targetPoint" />
          </mxGeometry>
        </mxCell>
        <mxCell id="qeCB0uxX6OETAUami0wg-17" value="3. fetch&lt;br&gt;next &lt;br&gt;build task" style="edgeLabel;html=1;align=center;verticalAlign=middle;resizable=0;points=[];" vertex="1" connectable="0" parent="qeCB0uxX6OETAUami0wg-16">
          <mxGeometry x="0.0934" y="1" relative="1" as="geometry">
            <mxPoint as="offset" />
          </mxGeometry>
        </mxCell>
        <mxCell id="qeCB0uxX6OETAUami0wg-18" value="4. query&lt;br&gt;next build&lt;br&gt;task" style="endArrow=classic;html=1;rounded=0;exitX=0.871;exitY=1.019;exitDx=0;exitDy=0;exitPerimeter=0;entryX=0.855;entryY=0;entryDx=0;entryDy=4.35;entryPerimeter=0;" edge="1" parent="1" source="qeCB0uxX6OETAUami0wg-6" target="qeCB0uxX6OETAUami0wg-7">
          <mxGeometry width="50" height="50" relative="1" as="geometry">
            <mxPoint x="319" y="270" as="sourcePoint" />
            <mxPoint x="369" y="220" as="targetPoint" />
          </mxGeometry>
        </mxCell>
        <mxCell id="qeCB0uxX6OETAUami0wg-19" value="5. run&lt;br&gt;build task" style="endArrow=classic;html=1;rounded=0;exitX=1.008;exitY=0.155;exitDx=0;exitDy=0;entryX=1.001;entryY=0.828;entryDx=0;entryDy=0;entryPerimeter=0;exitPerimeter=0;" edge="1" parent="1" source="qeCB0uxX6OETAUami0wg-3" target="qeCB0uxX6OETAUami0wg-3">
          <mxGeometry width="50" height="50" relative="1" as="geometry">
            <mxPoint x="569" y="250" as="sourcePoint" />
            <mxPoint x="619" y="200" as="targetPoint" />
            <Array as="points">
              <mxPoint x="739" y="190" />
              <mxPoint x="739" y="230" />
            </Array>
          </mxGeometry>
        </mxCell>
        <mxCell id="qeCB0uxX6OETAUami0wg-20" value="6. report&lt;br&gt;task logs" style="endArrow=classic;html=1;rounded=0;exitX=-0.009;exitY=0.887;exitDx=0;exitDy=0;exitPerimeter=0;entryX=1.003;entryY=0.874;entryDx=0;entryDy=0;entryPerimeter=0;" edge="1" parent="1" source="qeCB0uxX6OETAUami0wg-3" target="qeCB0uxX6OETAUami0wg-6">
          <mxGeometry width="50" height="50" relative="1" as="geometry">
            <mxPoint x="409" y="250" as="sourcePoint" />
            <mxPoint x="459" y="200" as="targetPoint" />
          </mxGeometry>
        </mxCell>
        <mxCell id="qeCB0uxX6OETAUami0wg-21" value="7. publish&lt;br&gt;task logs" style="endArrow=classic;html=1;rounded=0;exitX=0;exitY=0.75;exitDx=0;exitDy=0;entryX=1;entryY=0.75;entryDx=0;entryDy=0;" edge="1" parent="1" source="qeCB0uxX6OETAUami0wg-6" target="qeCB0uxX6OETAUami0wg-11">
          <mxGeometry width="50" height="50" relative="1" as="geometry">
            <mxPoint x="299" y="240" as="sourcePoint" />
            <mxPoint x="349" y="190" as="targetPoint" />
          </mxGeometry>
        </mxCell>
        <mxCell id="qeCB0uxX6OETAUami0wg-24" value="DEN Agent high level architecture" style="text;html=1;strokeColor=none;fillColor=none;align=center;verticalAlign=middle;whiteSpace=wrap;rounded=0;" vertex="1" parent="1">
          <mxGeometry x="19" y="60" width="800" height="30" as="geometry" />
        </mxCell>
      </root>
    </mxGraphModel>
  </diagram>
</mxfile>
